# xmcd
#
# Track frame offsets:
#	150
#	10501
#	25693
#	38661
#	50878
#	67652
#	82167
#	97008
#	117983
#	136206
#	150285
#	163445
#
# Disc length: 2421 seconds
# Revision: 0
# Processed by: cddbd v1.5.2PL0 Copyright (c) Steve Scherf et al.
# Submitted via: dBpowerAMP V12.0
#
DISCID=9109730c
DTITLE=Donella Plane - The Colours of Me
DYEAR=2009
DGENRE=Country
TTITLE0=Stubborn
TTITLE1=The Powers That Be
TTITLE2=Let The Bad Girl Dance
TTITLE3=Broken
TTITLE4=Someone Who
TTITLE5=Who Do You Listen To
TTITLE6=Take My Breath Away
TTITLE7=Little Girls Prayer
TTITLE8=Love is The Rock
TTITLE9=Eagle When She Flies
TTITLE10=I Will Survive
TTITLE11=Free
EXTD=
EXTT0=
EXTT1=
EXTT2=
EXTT3=
EXTT4=
EXTT5=
EXTT6=
EXTT7=
EXTT8=
EXTT9=
EXTT10=
EXTT11=
PLAYORDER=
